<svg width="240" height="49" viewBox="0 0 240 49" fill="none" xmlns="http://www.w3.org/2000/svg">
<rect y="0.5" width="240" height="48" rx="16" fill="#3767EA"/>
<path d="M68.3204 24.936V31H66.8164V29.48C66.5498 29.96 66.1231 30.3813 65.5364 30.744C64.9498 31.1067 64.2724 31.288 63.5044 31.288C62.4484 31.288 61.5418 31.0427 60.7844 30.552C60.0378 30.0613 59.4671 29.368 59.0724 28.472C58.6778 27.576 58.4804 26.52 58.4804 25.304C58.4804 24.0667 58.6938 23 59.1204 22.104C59.5471 21.1973 60.1498 20.504 60.9284 20.024C61.7071 19.5333 62.6191 19.288 63.6644 19.288C64.5818 19.288 65.3498 19.4427 65.9684 19.752C66.5871 20.0507 67.0671 20.4613 67.4084 20.984C67.7604 21.496 68.0004 22.0613 68.1284 22.68L66.2244 22.952C66.0538 22.312 65.7871 21.816 65.4244 21.464C65.0618 21.112 64.4751 20.936 63.6644 20.936C62.9498 20.936 62.3578 21.1173 61.8884 21.48C61.4191 21.8427 61.0671 22.3547 60.8324 23.016C60.5978 23.6667 60.4804 24.424 60.4804 25.288C60.4804 26.6213 60.7364 27.6827 61.2484 28.472C61.7604 29.2507 62.5764 29.64 63.6964 29.64C64.4004 29.64 64.9818 29.496 65.4404 29.208C65.8991 28.92 66.2404 28.5467 66.4644 28.088C66.6991 27.6187 66.8164 27.112 66.8164 26.568H64.0004V24.936H68.3204ZM74.0437 29.784C74.8117 29.784 75.3717 29.5227 75.7237 29C76.0864 28.4667 76.2677 27.7413 76.2677 26.824C76.2677 25.9173 76.0864 25.2027 75.7237 24.68C75.3717 24.1573 74.8117 23.896 74.0437 23.896C73.2757 23.896 72.7104 24.1627 72.3477 24.696C71.9957 25.2187 71.8197 25.928 71.8197 26.824C71.8197 27.7307 71.9904 28.4507 72.3317 28.984C72.6837 29.5173 73.2544 29.784 74.0437 29.784ZM74.0277 31.256C72.7264 31.256 71.7184 30.872 71.0037 30.104C70.289 29.336 69.9317 28.248 69.9317 26.84C69.9317 26.1787 70.0224 25.576 70.2037 25.032C70.3957 24.488 70.6677 24.024 71.0197 23.64C71.3717 23.256 71.8037 22.9573 72.3157 22.744C72.8277 22.5307 73.409 22.424 74.0597 22.424C74.721 22.424 75.3077 22.536 75.8197 22.76C76.3317 22.9733 76.7584 23.272 77.0997 23.656C77.4517 24.04 77.713 24.504 77.8837 25.048C78.065 25.5813 78.1557 26.168 78.1557 26.808C78.1557 27.5333 78.0544 28.1733 77.8517 28.728C77.649 29.272 77.361 29.736 76.9877 30.12C76.625 30.4933 76.193 30.776 75.6917 30.968C75.1904 31.16 74.6357 31.256 74.0277 31.256ZM85.4522 19.576V26.424C85.4522 27.5013 85.6442 28.3067 86.0282 28.84C86.4229 29.3627 87.0842 29.624 88.0122 29.624C88.9295 29.624 89.5749 29.3627 89.9482 28.84C90.3322 28.3067 90.5242 27.5013 90.5242 26.424V19.576H92.4602V26.424C92.4602 27.3093 92.3535 28.0613 92.1402 28.68C91.9269 29.288 91.6229 29.7893 91.2282 30.184C90.8335 30.568 90.3642 30.8453 89.8202 31.016C89.2762 31.1973 88.6682 31.288 87.9962 31.288C86.5349 31.288 85.4255 30.8987 84.6682 30.12C83.9109 29.3307 83.5322 28.0827 83.5322 26.376V19.576H85.4522ZM96.3878 19.576V31H94.5638V19.576H96.3878ZM97.6693 24.12V22.712H98.4053C98.6933 22.712 98.8693 22.664 98.9333 22.568C98.9973 22.4613 99.0293 22.2533 99.0293 21.944V20.44H100.789V22.68H102.853V24.12H100.789V28.472C100.789 28.8987 100.875 29.208 101.045 29.4C101.227 29.592 101.488 29.688 101.829 29.688C102.011 29.688 102.181 29.6773 102.341 29.656C102.512 29.6347 102.677 29.5973 102.837 29.544L103.109 30.904C102.608 31.0747 102.053 31.16 101.445 31.16C100.528 31.16 99.888 30.9253 99.5253 30.456C99.1626 29.976 98.9813 29.2613 98.9813 28.312V24.12H97.6693ZM104.138 20.424C104.138 20.1147 104.244 19.8587 104.458 19.656C104.671 19.4533 104.932 19.352 105.242 19.352C105.551 19.352 105.812 19.4533 106.026 19.656C106.239 19.8587 106.346 20.12 106.346 20.44C106.346 20.7493 106.239 21.0053 106.026 21.208C105.812 21.4 105.551 21.496 105.242 21.496C104.932 21.496 104.671 21.3947 104.458 21.192C104.244 20.9893 104.138 20.7333 104.138 20.424ZM104.314 22.68H106.138V31H104.314V22.68ZM109.995 22.68V23.88C110.571 23.08 111.254 22.616 112.043 22.488C112.246 22.456 112.459 22.44 112.683 22.44C113.249 22.4613 113.707 22.6053 114.059 22.872C114.411 23.128 114.667 23.48 114.827 23.928C115.563 22.9253 116.47 22.424 117.547 22.424C118.433 22.424 119.083 22.6693 119.499 23.16C119.915 23.6507 120.123 24.4347 120.123 25.512V31H118.299V26.008C118.299 25.6027 118.273 25.2667 118.219 25C118.166 24.7333 118.086 24.5253 117.979 24.376C117.883 24.216 117.755 24.1093 117.595 24.056C117.435 23.992 117.254 23.96 117.051 23.96C116.731 23.96 116.449 24.0187 116.203 24.136C115.958 24.2533 115.75 24.408 115.579 24.6C115.419 24.792 115.297 25.0107 115.211 25.256C115.126 25.4907 115.083 25.736 115.083 25.992V31H113.259V25.832C113.259 25.1173 113.147 24.6267 112.923 24.36C112.71 24.0933 112.411 23.96 112.027 23.96C111.867 23.96 111.675 23.9973 111.451 24.072C111.227 24.136 111.009 24.248 110.795 24.408C110.593 24.568 110.417 24.7813 110.267 25.048C110.118 25.3147 110.043 25.64 110.043 26.024V31H108.235V22.68H109.995ZM129.806 31H128.014V29.848C127.705 30.296 127.315 30.6427 126.846 30.888C126.377 31.1333 125.881 31.256 125.358 31.256C124.558 31.256 123.897 31.0693 123.374 30.696C122.862 30.3227 122.478 29.8053 122.222 29.144C121.966 28.4827 121.838 27.72 121.838 26.856C121.838 25.9707 121.982 25.1973 122.27 24.536C122.569 23.864 122.99 23.3467 123.534 22.984C124.078 22.6107 124.734 22.424 125.502 22.424C125.939 22.424 126.377 22.5147 126.814 22.696C127.262 22.8773 127.667 23.208 128.03 23.688V22.68H129.806V31ZM128.014 27.096V26.664C128.014 25.6507 127.763 24.8987 127.262 24.408C126.921 24.0773 126.451 23.912 125.854 23.912C125.267 23.912 124.771 24.136 124.366 24.584C123.961 25.0213 123.758 25.768 123.758 26.824C123.758 27.56 123.849 28.1467 124.03 28.584C124.222 29.0107 124.473 29.3147 124.782 29.496C125.091 29.6773 125.422 29.768 125.774 29.768C126.339 29.768 126.819 29.6027 127.214 29.272C127.481 29.048 127.678 28.7653 127.806 28.424C127.945 28.072 128.014 27.6293 128.014 27.096ZM131.076 24.12V22.712H131.812C132.1 22.712 132.276 22.664 132.34 22.568C132.404 22.4613 132.436 22.2533 132.436 21.944V20.44H134.196V22.68H136.26V24.12H134.196V28.472C134.196 28.8987 134.281 29.208 134.452 29.4C134.633 29.592 134.894 29.688 135.236 29.688C135.417 29.688 135.588 29.6773 135.748 29.656C135.918 29.6347 136.084 29.5973 136.244 29.544L136.516 30.904C136.014 31.0747 135.46 31.16 134.852 31.16C133.934 31.16 133.294 30.9253 132.932 30.456C132.569 29.976 132.388 29.2613 132.388 28.312V24.12H131.076ZM144.94 28.536C144.79 29.4 144.422 30.072 143.836 30.552C143.249 31.0213 142.406 31.256 141.308 31.256C139.985 31.256 138.977 30.8773 138.284 30.12C137.601 29.352 137.26 28.2747 137.26 26.888C137.26 26.1733 137.356 25.5387 137.548 24.984C137.75 24.4293 138.028 23.9653 138.38 23.592C138.742 23.208 139.169 22.92 139.66 22.728C140.161 22.5253 140.71 22.424 141.308 22.424C141.948 22.424 142.502 22.5253 142.972 22.728C143.441 22.92 143.83 23.1973 144.14 23.56C144.449 23.912 144.678 24.3387 144.828 24.84C144.977 25.3307 145.052 25.88 145.052 26.488V27.288H139.084C139.105 28.0453 139.297 28.6587 139.66 29.128C140.022 29.5973 140.572 29.832 141.308 29.832C141.884 29.832 142.316 29.72 142.604 29.496C142.892 29.272 143.084 28.952 143.18 28.536H144.94ZM143.276 26.024C143.276 25.3413 143.116 24.8027 142.796 24.408C142.476 24.0133 141.964 23.816 141.26 23.816C140.588 23.816 140.076 24.0187 139.724 24.424C139.372 24.8187 139.169 25.352 139.116 26.024H143.276ZM150.568 19.576H152.36L157.608 27.832V19.576H159.496V31H157.704L152.44 22.776V31H150.568V19.576ZM165.575 29.784C166.343 29.784 166.903 29.5227 167.255 29C167.618 28.4667 167.799 27.7413 167.799 26.824C167.799 25.9173 167.618 25.2027 167.255 24.68C166.903 24.1573 166.343 23.896 165.575 23.896C164.807 23.896 164.242 24.1627 163.879 24.696C163.527 25.2187 163.351 25.928 163.351 26.824C163.351 27.7307 163.522 28.4507 163.863 28.984C164.215 29.5173 164.786 29.784 165.575 29.784ZM165.559 31.256C164.258 31.256 163.25 30.872 162.535 30.104C161.82 29.336 161.463 28.248 161.463 26.84C161.463 26.1787 161.554 25.576 161.735 25.032C161.927 24.488 162.199 24.024 162.551 23.64C162.903 23.256 163.335 22.9573 163.847 22.744C164.359 22.5307 164.94 22.424 165.591 22.424C166.252 22.424 166.839 22.536 167.351 22.76C167.863 22.9733 168.29 23.272 168.631 23.656C168.983 24.04 169.244 24.504 169.415 25.048C169.596 25.5813 169.687 26.168 169.687 26.808C169.687 27.5333 169.586 28.1733 169.383 28.728C169.18 29.272 168.892 29.736 168.519 30.12C168.156 30.4933 167.724 30.776 167.223 30.968C166.722 31.16 166.167 31.256 165.559 31.256ZM172.401 22.68L173.809 28.76L175.569 22.744H177.233L178.929 28.76L180.337 22.68H182.241L179.809 31H178.001L176.321 24.952L174.625 31H172.833L170.417 22.68H172.401Z" fill="#F5F8FF"/>
</svg>
