<svg width="640" height="110" viewBox="0 0 640 110" fill="none" xmlns="http://www.w3.org/2000/svg">
<path d="M100.286 9.7H112.574C110.078 12.324 109.31 13.732 107.518 17.7L90.9423 55.78L79.2303 29.028L67.6463 55.78L50.9423 17.7C49.2143 13.732 48.4463 12.452 45.8863 9.7H67.0703C65.4703 11.044 64.6383 12.772 64.6383 14.948C64.6383 16.484 64.8943 17.572 65.7263 19.556L72.0623 34.66L76.7343 23.332L74.1103 17.316C72.5743 13.796 71.4863 11.62 69.9503 9.7H91.1343C89.0863 11.044 88.0623 12.772 88.0623 14.948C88.0623 16.484 88.3183 17.572 89.1503 19.556L95.6143 34.66L102.014 19.556C102.846 17.572 103.166 16.484 103.166 15.012C103.166 13.092 101.822 10.788 100.286 9.7ZM139.84 49.188C140.8 49.188 141.504 48.996 142.016 48.612C141.312 52.644 138.048 55.46 133.76 55.46C130.112 55.46 126.784 53.86 125.568 50.02C123.584 53.86 120.064 55.46 116.352 55.46C111.04 55.46 107.456 51.94 107.456 47.524C107.456 41.828 111.296 38.116 119.68 36.196L125.056 34.98V28.132C125.056 24.484 123.776 22.948 121.408 22.948C119.296 22.948 117.952 24.356 117.952 26.468C117.952 28.324 118.592 29.604 119.808 31.396C119.36 33.06 117.056 35.172 113.984 35.172C110.4 35.172 108.288 32.676 108.288 29.22C108.288 23.908 114.304 19.94 122.624 19.94C132.352 19.94 137.216 23.844 137.216 32.548V45.028C137.216 48.036 138.24 49.188 139.84 49.188ZM122.816 48.932C123.712 48.932 124.48 48.612 125.12 48.036C125.056 47.524 125.056 47.012 125.056 46.436V37.86L124.224 38.052C121.216 38.82 119.168 40.484 119.168 44.132C119.168 47.14 120.576 48.932 122.816 48.932ZM151.373 19.428C147.661 19.428 144.781 16.484 144.781 12.964C144.781 9.38 147.661 6.436 151.373 6.436C155.085 6.436 157.965 9.38 157.965 12.964C157.965 16.484 155.085 19.428 151.373 19.428ZM145.613 47.332V33.636C145.613 29.284 144.973 27.556 142.797 26.084L157.773 19.94V47.268C157.773 50.852 158.797 52.708 160.717 54.5H142.669C144.845 52.708 145.613 50.852 145.613 47.332ZM181.327 48.292C182.863 48.292 184.271 47.716 185.231 46.692C184.271 52.516 180.879 55.46 174.607 55.46C169.231 55.46 164.815 52.644 164.815 45.988V24.1H161.679L176.975 11.172V20.9H183.695V24.1H176.975V43.364C176.975 46.436 178.639 48.292 181.327 48.292ZM193.802 39.332L188.234 18.148C187.978 17.124 187.85 16.164 187.85 15.076C187.85 10.98 190.794 8.42 194.634 8.42C198.474 8.42 201.418 10.98 201.418 15.076C201.418 16.164 201.29 17.124 201.034 18.148L195.466 39.332H193.802ZM195.21 55.972C191.434 55.972 188.362 52.9 188.362 49.124C188.362 45.412 191.434 42.34 195.21 42.34C198.922 42.34 201.994 45.412 201.994 49.124C201.994 52.9 198.922 55.972 195.21 55.972ZM218.376 54.5C220.936 51.94 221.96 48.804 221.96 43.748V20.452C221.96 15.332 220.936 12.196 218.376 9.7H237.832C253.064 9.7 261.704 18.404 261.704 31.908C261.704 47.14 251.08 54.5 238.024 54.5H218.376ZM235.4 50.66C243.08 50.66 247.304 46.756 247.304 33.124C247.304 18.468 242.568 13.54 235.4 13.54V50.66ZM282.125 55.46C271.437 55.46 264.269 48.356 264.269 37.732C264.269 27.044 271.437 19.94 282.125 19.94C292.813 19.94 299.981 27.044 299.981 37.732C299.981 48.356 292.813 55.46 282.125 55.46ZM282.125 51.94C285.261 51.94 286.861 47.076 286.861 37.732C286.861 28.324 285.261 23.46 282.125 23.46C278.989 23.46 277.389 28.324 277.389 37.732C277.389 47.076 278.989 51.94 282.125 51.94ZM321.326 54.5C322.862 52.708 323.438 50.788 323.438 47.332V30.692C323.438 27.748 322.222 26.276 319.918 26.276C318.638 26.276 317.55 26.724 316.718 27.492V47.332C316.718 50.98 317.166 52.452 318.83 54.5H301.614C303.79 52.708 304.558 50.852 304.558 47.332V33.7C304.558 29.284 303.854 27.492 301.614 25.956L316.398 19.94V25.188C317.998 22.116 321.71 19.94 325.678 19.94C332.014 19.94 335.598 23.716 335.598 30.308V47.332C335.598 50.66 336.302 52.708 338.094 54.5H321.326ZM339.145 28.068C342.153 26.852 344.201 25.188 344.201 23.14C344.201 21.284 343.113 20.004 340.873 19.172C338.569 18.34 337.481 16.804 337.481 14.308C337.481 11.236 339.913 9.06 343.369 9.06C347.593 9.06 350.089 12.068 350.089 17.06C350.089 23.652 345.609 28.068 339.145 28.068ZM371.492 48.292C373.028 48.292 374.436 47.716 375.396 46.692C374.436 52.516 371.044 55.46 364.772 55.46C359.396 55.46 354.98 52.644 354.98 45.988V24.1H351.844L367.14 11.172V20.9H373.86V24.1H367.14V43.364C367.14 46.436 368.804 48.292 371.492 48.292ZM400.876 55.46C396.652 55.46 392.428 54.5 388.46 52.644V42.148C392.492 47.396 398.06 50.852 402.54 50.852C404.396 50.852 405.548 49.892 405.548 48.164C405.548 46.82 404.652 46.052 402.22 45.092L395.756 42.724C390.252 40.676 387.564 37.092 387.564 31.652C387.564 24.804 393.196 19.94 401.068 19.94C405.356 19.94 410.092 21.156 412.46 22.884V32.228C409.58 27.684 403.948 24.228 399.724 24.228C397.676 24.228 396.652 24.932 396.652 26.404C396.652 27.748 397.292 28.452 399.852 29.476L406.252 32.1C412.268 34.532 414.508 37.988 414.508 42.98C414.508 50.468 409.068 55.46 400.876 55.46ZM426.073 35.62C427.289 41.636 431.577 45.028 438.041 45.028C441.305 45.028 443.417 44.452 445.785 42.98C445.017 50.724 440.025 55.46 432.601 55.46C422.553 55.46 416.089 49.188 416.089 38.308C416.089 27.748 422.233 19.94 431.769 19.94C440.729 19.94 445.785 26.02 445.785 35.62H426.073ZM430.361 23.332C427.417 23.332 425.689 26.468 425.689 31.844V32.036H434.521C434.521 25.828 433.369 23.332 430.361 23.332ZM466.458 54.5C467.994 52.708 468.57 50.788 468.57 47.332V30.692C468.57 27.748 467.354 26.276 465.05 26.276C463.77 26.276 462.682 26.724 461.85 27.492V47.332C461.85 50.98 462.298 52.452 463.962 54.5H446.746C448.922 52.708 449.69 50.852 449.69 47.332V33.7C449.69 29.284 448.986 27.492 446.746 25.956L461.53 19.94V25.188C463.13 22.116 466.842 19.94 470.81 19.94C477.146 19.94 480.73 23.716 480.73 30.308V47.332C480.73 50.66 481.434 52.708 483.226 54.5H466.458ZM521.25 54.5H505.954V51.108C504.098 53.86 501.09 55.46 497.506 55.46C489.826 55.46 485.154 49.508 485.154 39.716C485.154 27.94 491.426 19.94 500.13 19.94C502.626 19.94 504.738 20.58 505.954 21.412C505.89 16.996 504.674 14.884 501.218 12.964L518.114 7.78V48.1C518.114 51.748 518.882 53.348 521.25 54.5ZM503.97 49.124C504.674 49.124 505.378 48.932 505.954 48.612V24.228C505.442 23.78 504.866 23.588 504.098 23.588C500.578 23.588 498.082 28.836 498.082 36.772C498.082 45.028 500.258 49.124 503.97 49.124ZM543.11 19.428C539.398 19.428 536.518 16.484 536.518 12.964C536.518 9.38 539.398 6.436 543.11 6.436C546.822 6.436 549.702 9.38 549.702 12.964C549.702 16.484 546.822 19.428 543.11 19.428ZM537.35 47.332V33.636C537.35 29.284 536.71 27.556 534.534 26.084L549.51 19.94V47.268C549.51 50.852 550.534 52.708 552.454 54.5H534.406C536.582 52.708 537.35 50.852 537.35 47.332ZM573.064 48.292C574.6 48.292 576.008 47.716 576.968 46.692C576.008 52.516 572.616 55.46 566.344 55.46C560.968 55.46 556.552 52.644 556.552 45.988V24.1H553.416L568.712 11.172V20.9H575.432V24.1H568.712V43.364C568.712 46.436 570.376 48.292 573.064 48.292ZM585.092 56.036C581.316 56.036 578.244 52.964 578.244 49.188C578.244 45.476 581.316 42.404 585.092 42.404C588.804 42.404 591.876 45.476 591.876 49.188C591.876 52.964 588.804 56.036 585.092 56.036Z" fill="black"/>
<path d="M76.6866 87.364V95.644L84.2706 87.364H87.0066L79.1586 95.788L87.5106 104.5H84.6306L76.6866 96.196V104.5H74.4546V87.364H76.6866ZM99.4024 101.02C99.1944 102.22 98.6584 103.164 97.7944 103.852C96.9464 104.54 95.7224 104.884 94.1224 104.884C92.2344 104.884 90.7864 104.316 89.7784 103.18C88.7704 102.028 88.2664 100.428 88.2664 98.38C88.2664 97.308 88.4104 96.356 88.6984 95.524C88.9864 94.692 89.3864 93.996 89.8984 93.436C90.4264 92.876 91.0504 92.452 91.7704 92.164C92.4904 91.86 93.2744 91.708 94.1224 91.708C95.0824 91.708 95.9064 91.86 96.5944 92.164C97.2824 92.468 97.8424 92.892 98.2744 93.436C98.7224 93.964 99.0504 94.596 99.2584 95.332C99.4824 96.068 99.5944 96.876 99.5944 97.756V98.812H90.3784C90.3784 99.436 90.4584 100.02 90.6184 100.564C90.7944 101.092 91.0344 101.556 91.3384 101.956C91.6584 102.34 92.0504 102.644 92.5144 102.868C92.9784 103.092 93.5144 103.204 94.1224 103.204C95.1624 103.204 95.9224 103.012 96.4024 102.628C96.8824 102.228 97.2104 101.692 97.3864 101.02H99.4024ZM97.5064 97.252C97.5064 96.66 97.4424 96.124 97.3144 95.644C97.1864 95.164 96.9864 94.756 96.7144 94.42C96.4424 94.068 96.0904 93.796 95.6584 93.604C95.2264 93.412 94.7064 93.316 94.0984 93.316C92.9944 93.316 92.1304 93.652 91.5064 94.324C90.8984 94.996 90.5384 95.972 90.4264 97.252H97.5064ZM113.09 101.02C112.882 102.22 112.346 103.164 111.482 103.852C110.634 104.54 109.41 104.884 107.81 104.884C105.922 104.884 104.474 104.316 103.466 103.18C102.458 102.028 101.954 100.428 101.954 98.38C101.954 97.308 102.098 96.356 102.386 95.524C102.674 94.692 103.074 93.996 103.586 93.436C104.114 92.876 104.738 92.452 105.458 92.164C106.178 91.86 106.962 91.708 107.81 91.708C108.77 91.708 109.594 91.86 110.282 92.164C110.97 92.468 111.53 92.892 111.962 93.436C112.41 93.964 112.738 94.596 112.946 95.332C113.17 96.068 113.282 96.876 113.282 97.756V98.812H104.066C104.066 99.436 104.146 100.02 104.306 100.564C104.482 101.092 104.722 101.556 105.026 101.956C105.346 102.34 105.738 102.644 106.202 102.868C106.666 103.092 107.202 103.204 107.81 103.204C108.85 103.204 109.61 103.012 110.09 102.628C110.57 102.228 110.898 101.692 111.074 101.02H113.09ZM111.194 97.252C111.194 96.66 111.13 96.124 111.002 95.644C110.874 95.164 110.674 94.756 110.402 94.42C110.13 94.068 109.778 93.796 109.346 93.604C108.914 93.412 108.394 93.316 107.786 93.316C106.682 93.316 105.818 93.652 105.194 94.324C104.586 94.996 104.226 95.972 104.114 97.252H111.194ZM116.049 92.092H118.113V93.868C118.625 93.164 119.217 92.628 119.889 92.26C120.577 91.892 121.377 91.708 122.289 91.708C123.169 91.708 123.937 91.868 124.593 92.188C125.265 92.508 125.817 92.956 126.249 93.532C126.697 94.108 127.025 94.796 127.233 95.596C127.457 96.38 127.569 97.252 127.569 98.212C127.569 99.236 127.441 100.164 127.185 100.996C126.929 101.812 126.561 102.508 126.081 103.084C125.601 103.66 125.017 104.108 124.329 104.428C123.657 104.732 122.897 104.884 122.049 104.884C121.345 104.884 120.649 104.748 119.961 104.476C119.289 104.188 118.681 103.684 118.137 102.964V109.156H116.049V92.092ZM118.113 98.644C118.113 99.444 118.201 100.132 118.377 100.708C118.569 101.268 118.825 101.732 119.145 102.1C119.465 102.468 119.849 102.74 120.297 102.916C120.745 103.076 121.233 103.156 121.761 103.156C122.273 103.156 122.745 103.068 123.177 102.892C123.625 102.716 124.009 102.436 124.329 102.052C124.649 101.652 124.897 101.14 125.073 100.516C125.265 99.892 125.361 99.132 125.361 98.236C125.361 97.324 125.257 96.564 125.049 95.956C124.857 95.332 124.601 94.836 124.281 94.468C123.961 94.1 123.593 93.836 123.177 93.676C122.777 93.516 122.361 93.436 121.929 93.436C121.385 93.436 120.881 93.532 120.417 93.724C119.953 93.9 119.545 94.172 119.193 94.54C118.857 94.892 118.593 95.348 118.401 95.908C118.209 96.452 118.113 97.084 118.113 97.804V98.644ZM146.489 92.092L139.337 109.156H137.177L139.409 104.188L134.273 92.092H136.697L140.441 101.74L144.185 92.092H146.489ZM153.375 104.884C152.431 104.884 151.591 104.732 150.855 104.428C150.119 104.124 149.495 103.692 148.983 103.132C148.471 102.572 148.079 101.884 147.807 101.068C147.535 100.252 147.399 99.34 147.399 98.332C147.399 97.324 147.543 96.412 147.831 95.596C148.119 94.78 148.527 94.084 149.055 93.508C149.583 92.932 150.215 92.492 150.951 92.188C151.703 91.868 152.535 91.708 153.447 91.708C154.375 91.708 155.207 91.86 155.943 92.164C156.679 92.468 157.303 92.908 157.815 93.484C158.343 94.044 158.743 94.724 159.015 95.524C159.287 96.324 159.423 97.228 159.423 98.236C159.423 99.26 159.279 100.18 158.991 100.996C158.719 101.812 158.319 102.508 157.791 103.084C157.279 103.66 156.647 104.108 155.895 104.428C155.143 104.732 154.303 104.884 153.375 104.884ZM153.399 103.156C154.071 103.156 154.647 103.036 155.127 102.796C155.607 102.556 155.999 102.22 156.303 101.788C156.623 101.356 156.855 100.844 156.999 100.252C157.143 99.644 157.215 98.98 157.215 98.26C157.215 97.556 157.143 96.908 156.999 96.316C156.855 95.724 156.623 95.22 156.303 94.804C155.999 94.372 155.607 94.036 155.127 93.796C154.647 93.556 154.071 93.436 153.399 93.436C152.727 93.436 152.151 93.556 151.671 93.796C151.207 94.036 150.815 94.372 150.495 94.804C150.191 95.22 149.967 95.724 149.823 96.316C149.679 96.908 149.607 97.564 149.607 98.284C149.607 99.004 149.679 99.66 149.823 100.252C149.967 100.844 150.191 101.356 150.495 101.788C150.799 102.22 151.191 102.556 151.671 102.796C152.151 103.036 152.727 103.156 153.399 103.156ZM162.149 92.092H164.237V99.916C164.237 101.068 164.421 101.884 164.789 102.364C165.173 102.844 165.789 103.084 166.637 103.084C167.565 103.084 168.405 102.748 169.157 102.076C169.557 101.724 169.861 101.356 170.069 100.972C170.277 100.572 170.381 100.06 170.381 99.436V92.092H172.469V104.5H170.405V102.58C169.797 103.38 169.141 103.964 168.437 104.332C167.733 104.7 166.973 104.884 166.157 104.884C164.749 104.884 163.725 104.508 163.085 103.756C162.461 102.988 162.149 101.844 162.149 100.324V92.092ZM175.674 92.092H177.738V94.012C178.202 93.324 178.746 92.796 179.37 92.428C179.994 92.06 180.658 91.876 181.362 91.876C181.794 91.876 182.162 91.908 182.466 91.972L182.202 93.916C182.042 93.884 181.882 93.86 181.722 93.844C181.562 93.812 181.386 93.796 181.194 93.796C180.81 93.796 180.418 93.868 180.018 94.012C179.618 94.14 179.242 94.364 178.89 94.684C178.538 94.988 178.258 95.34 178.05 95.74C177.858 96.14 177.762 96.604 177.762 97.132V104.5H175.674V92.092ZM192.615 101.02C192.615 101.628 192.751 102.116 193.023 102.484C193.295 102.852 193.711 103.036 194.271 103.036C194.623 103.036 194.927 103.012 195.183 102.964C195.455 102.9 195.703 102.828 195.927 102.748L196.287 104.38C195.967 104.492 195.615 104.58 195.231 104.644C194.863 104.724 194.423 104.764 193.911 104.764C192.983 104.764 192.271 104.58 191.775 104.212C191.295 103.844 190.967 103.34 190.791 102.7C190.615 102.044 190.527 101.3 190.527 100.468V93.748H188.607V92.14H189.687C190.103 92.14 190.359 92.076 190.455 91.948C190.567 91.82 190.623 91.556 190.623 91.156V88.708H192.615V92.092H195.903V93.748H192.615V101.02ZM198.128 92.092H200.192V94.012C200.656 93.324 201.2 92.796 201.824 92.428C202.448 92.06 203.112 91.876 203.816 91.876C204.248 91.876 204.616 91.908 204.92 91.972L204.656 93.916C204.496 93.884 204.336 93.86 204.176 93.844C204.016 93.812 203.84 93.796 203.648 93.796C203.264 93.796 202.872 93.868 202.472 94.012C202.072 94.14 201.696 94.364 201.344 94.684C200.992 94.988 200.712 95.34 200.504 95.74C200.312 96.14 200.216 96.604 200.216 97.132V104.5H198.128V92.092ZM217.981 92.092V104.5H215.941V102.724C215.429 103.412 214.837 103.948 214.165 104.332C213.493 104.7 212.701 104.884 211.789 104.884C210.573 104.884 209.573 104.596 208.789 104.02C208.021 103.444 207.445 102.66 207.061 101.668C206.693 100.676 206.509 99.572 206.509 98.356C206.509 96.292 206.997 94.668 207.973 93.484C208.965 92.3 210.317 91.708 212.029 91.708C212.685 91.708 213.357 91.852 214.045 92.14C214.733 92.412 215.365 92.916 215.941 93.652V92.092H217.981ZM215.965 97.924C215.965 96.932 215.853 96.164 215.629 95.62C215.421 95.06 215.069 94.588 214.573 94.204C214.221 93.916 213.861 93.716 213.493 93.604C213.141 93.492 212.749 93.436 212.317 93.436C211.645 93.436 211.029 93.596 210.469 93.916C209.925 94.236 209.493 94.756 209.173 95.476C208.853 96.18 208.693 97.124 208.693 98.308C208.693 99.524 208.861 100.484 209.197 101.188C209.533 101.892 209.965 102.396 210.493 102.7C211.021 102.988 211.573 103.132 212.149 103.132C212.613 103.132 213.029 103.084 213.397 102.988C213.765 102.876 214.133 102.676 214.501 102.388C214.997 102.02 215.365 101.548 215.605 100.972C215.845 100.38 215.965 99.644 215.965 98.764V97.924ZM221.213 92.092H223.277V93.988C223.885 93.172 224.557 92.588 225.293 92.236C226.029 91.884 226.805 91.708 227.621 91.708C229.029 91.708 230.069 92.092 230.741 92.86C231.429 93.628 231.773 94.756 231.773 96.244V104.5H229.685V96.652C229.685 95.5 229.477 94.692 229.061 94.228C228.645 93.748 228.005 93.508 227.141 93.508C226.677 93.508 226.213 93.588 225.749 93.748C225.301 93.908 224.893 94.164 224.525 94.516C224.125 94.868 223.821 95.244 223.613 95.644C223.405 96.028 223.301 96.532 223.301 97.156V104.5H221.213V92.092ZM236.245 100.876C236.389 101.74 236.749 102.348 237.325 102.7C237.917 103.036 238.717 103.204 239.725 103.204C240.781 103.204 241.525 103.028 241.957 102.676C242.405 102.308 242.629 101.828 242.629 101.236C242.629 100.996 242.597 100.772 242.533 100.564C242.485 100.34 242.381 100.148 242.221 99.988C242.061 99.812 241.837 99.66 241.549 99.532C241.261 99.404 240.885 99.3 240.421 99.22L238.837 98.98C238.133 98.868 237.517 98.724 236.989 98.548C236.461 98.372 236.013 98.148 235.645 97.876C235.277 97.588 234.997 97.244 234.805 96.844C234.629 96.428 234.541 95.932 234.541 95.356C234.541 94.78 234.661 94.268 234.901 93.82C235.157 93.372 235.501 92.996 235.933 92.692C236.381 92.372 236.901 92.132 237.493 91.972C238.101 91.796 238.757 91.708 239.461 91.708C240.357 91.708 241.101 91.796 241.693 91.972C242.301 92.148 242.797 92.388 243.181 92.692C243.565 92.996 243.861 93.356 244.069 93.772C244.277 94.188 244.437 94.628 244.549 95.092L242.653 95.404C242.541 95.068 242.413 94.772 242.269 94.516C242.125 94.26 241.933 94.052 241.693 93.892C241.453 93.716 241.157 93.588 240.805 93.508C240.469 93.412 240.045 93.364 239.533 93.364C238.957 93.364 238.477 93.42 238.093 93.532C237.709 93.628 237.397 93.764 237.157 93.94C236.933 94.116 236.773 94.316 236.677 94.54C236.581 94.748 236.533 94.972 236.533 95.212C236.533 95.468 236.565 95.7 236.629 95.908C236.693 96.1 236.813 96.276 236.989 96.436C237.165 96.58 237.405 96.708 237.709 96.82C238.013 96.932 238.405 97.028 238.885 97.108L240.685 97.396C242.141 97.636 243.181 98.052 243.805 98.644C244.445 99.236 244.765 100.1 244.765 101.236C244.765 101.764 244.661 102.252 244.453 102.7C244.245 103.132 243.933 103.516 243.517 103.852C243.101 104.172 242.581 104.42 241.957 104.596C241.333 104.788 240.605 104.884 239.773 104.884C239.021 104.884 238.317 104.812 237.661 104.668C237.021 104.524 236.453 104.3 235.957 103.996C235.461 103.676 235.061 103.26 234.757 102.748C234.453 102.236 234.277 101.612 234.229 100.876H236.245ZM248.256 91.036C248.256 90.14 248.424 89.412 248.76 88.852C249.096 88.276 249.536 87.852 250.08 87.58C250.64 87.308 251.264 87.172 251.952 87.172C252.32 87.172 252.672 87.196 253.008 87.244C253.344 87.276 253.696 87.348 254.064 87.46L253.728 89.092C253.472 89.012 253.224 88.964 252.984 88.948C252.76 88.916 252.536 88.9 252.312 88.9C251.752 88.9 251.272 89.052 250.872 89.356C250.472 89.644 250.272 90.18 250.272 90.964V92.092H253.416V93.748H250.272V104.5H248.184V93.748H246.24V92.164H247.32C247.736 92.164 247.992 92.092 248.088 91.948C248.2 91.804 248.256 91.5 248.256 91.036ZM265.715 101.02C265.507 102.22 264.971 103.164 264.107 103.852C263.259 104.54 262.035 104.884 260.435 104.884C258.547 104.884 257.099 104.316 256.091 103.18C255.083 102.028 254.579 100.428 254.579 98.38C254.579 97.308 254.723 96.356 255.011 95.524C255.299 94.692 255.699 93.996 256.211 93.436C256.739 92.876 257.363 92.452 258.083 92.164C258.803 91.86 259.587 91.708 260.435 91.708C261.395 91.708 262.219 91.86 262.907 92.164C263.595 92.468 264.155 92.892 264.587 93.436C265.035 93.964 265.363 94.596 265.571 95.332C265.795 96.068 265.907 96.876 265.907 97.756V98.812H256.691C256.691 99.436 256.771 100.02 256.931 100.564C257.107 101.092 257.347 101.556 257.651 101.956C257.971 102.34 258.363 102.644 258.827 102.868C259.291 103.092 259.827 103.204 260.435 103.204C261.475 103.204 262.235 103.012 262.715 102.628C263.195 102.228 263.523 101.692 263.699 101.02H265.715ZM263.819 97.252C263.819 96.66 263.755 96.124 263.627 95.644C263.499 95.164 263.299 94.756 263.027 94.42C262.755 94.068 262.403 93.796 261.971 93.604C261.539 93.412 261.019 93.316 260.411 93.316C259.307 93.316 258.443 93.652 257.819 94.324C257.211 94.996 256.851 95.972 256.739 97.252H263.819ZM268.674 92.092H270.738V94.012C271.202 93.324 271.746 92.796 272.37 92.428C272.994 92.06 273.658 91.876 274.362 91.876C274.794 91.876 275.162 91.908 275.466 91.972L275.202 93.916C275.042 93.884 274.882 93.86 274.722 93.844C274.562 93.812 274.386 93.796 274.194 93.796C273.81 93.796 273.418 93.868 273.018 94.012C272.618 94.14 272.242 94.364 271.89 94.684C271.538 94.988 271.258 95.34 271.05 95.74C270.858 96.14 270.762 96.604 270.762 97.132V104.5H268.674V92.092ZM278.573 100.876C278.717 101.74 279.077 102.348 279.653 102.7C280.245 103.036 281.045 103.204 282.053 103.204C283.109 103.204 283.853 103.028 284.285 102.676C284.733 102.308 284.957 101.828 284.957 101.236C284.957 100.996 284.925 100.772 284.861 100.564C284.813 100.34 284.709 100.148 284.549 99.988C284.389 99.812 284.165 99.66 283.877 99.532C283.589 99.404 283.213 99.3 282.749 99.22L281.165 98.98C280.461 98.868 279.845 98.724 279.317 98.548C278.789 98.372 278.341 98.148 277.973 97.876C277.605 97.588 277.325 97.244 277.133 96.844C276.957 96.428 276.869 95.932 276.869 95.356C276.869 94.78 276.989 94.268 277.229 93.82C277.485 93.372 277.829 92.996 278.261 92.692C278.709 92.372 279.229 92.132 279.821 91.972C280.429 91.796 281.085 91.708 281.789 91.708C282.685 91.708 283.429 91.796 284.021 91.972C284.629 92.148 285.125 92.388 285.509 92.692C285.893 92.996 286.189 93.356 286.397 93.772C286.605 94.188 286.765 94.628 286.877 95.092L284.981 95.404C284.869 95.068 284.741 94.772 284.597 94.516C284.453 94.26 284.261 94.052 284.021 93.892C283.781 93.716 283.485 93.588 283.133 93.508C282.797 93.412 282.373 93.364 281.861 93.364C281.285 93.364 280.805 93.42 280.421 93.532C280.037 93.628 279.725 93.764 279.485 93.94C279.261 94.116 279.101 94.316 279.005 94.54C278.909 94.748 278.861 94.972 278.861 95.212C278.861 95.468 278.893 95.7 278.957 95.908C279.021 96.1 279.141 96.276 279.317 96.436C279.493 96.58 279.733 96.708 280.037 96.82C280.341 96.932 280.733 97.028 281.213 97.108L283.013 97.396C284.469 97.636 285.509 98.052 286.133 98.644C286.773 99.236 287.093 100.1 287.093 101.236C287.093 101.764 286.989 102.252 286.781 102.7C286.573 103.132 286.261 103.516 285.845 103.852C285.429 104.172 284.909 104.42 284.285 104.596C283.661 104.788 282.933 104.884 282.101 104.884C281.349 104.884 280.645 104.812 279.989 104.668C279.349 104.524 278.781 104.3 278.285 103.996C277.789 103.676 277.389 103.26 277.085 102.748C276.781 102.236 276.605 101.612 276.557 100.876H278.573ZM306.176 92.092V104.5H304.136V102.724C303.624 103.412 303.032 103.948 302.36 104.332C301.688 104.7 300.896 104.884 299.984 104.884C298.768 104.884 297.768 104.596 296.984 104.02C296.216 103.444 295.64 102.66 295.256 101.668C294.888 100.676 294.704 99.572 294.704 98.356C294.704 96.292 295.192 94.668 296.168 93.484C297.16 92.3 298.512 91.708 300.224 91.708C300.88 91.708 301.552 91.852 302.24 92.14C302.928 92.412 303.56 92.916 304.136 93.652V92.092H306.176ZM304.16 97.924C304.16 96.932 304.048 96.164 303.824 95.62C303.616 95.06 303.264 94.588 302.768 94.204C302.416 93.916 302.056 93.716 301.688 93.604C301.336 93.492 300.944 93.436 300.512 93.436C299.84 93.436 299.224 93.596 298.664 93.916C298.12 94.236 297.688 94.756 297.368 95.476C297.048 96.18 296.888 97.124 296.888 98.308C296.888 99.524 297.056 100.484 297.392 101.188C297.728 101.892 298.16 102.396 298.688 102.7C299.216 102.988 299.768 103.132 300.344 103.132C300.808 103.132 301.224 103.084 301.592 102.988C301.96 102.876 302.328 102.676 302.696 102.388C303.192 102.02 303.56 101.548 303.8 100.972C304.04 100.38 304.16 99.644 304.16 98.764V97.924ZM307.969 92.092H310.393L314.089 102.172L317.857 92.092H320.161L315.169 104.5H312.937L307.969 92.092ZM332.988 92.092V104.5H330.948V102.724C330.436 103.412 329.844 103.948 329.172 104.332C328.5 104.7 327.708 104.884 326.796 104.884C325.58 104.884 324.58 104.596 323.796 104.02C323.028 103.444 322.452 102.66 322.068 101.668C321.7 100.676 321.516 99.572 321.516 98.356C321.516 96.292 322.004 94.668 322.98 93.484C323.972 92.3 325.324 91.708 327.036 91.708C327.692 91.708 328.364 91.852 329.052 92.14C329.74 92.412 330.372 92.916 330.948 93.652V92.092H332.988ZM330.972 97.924C330.972 96.932 330.86 96.164 330.636 95.62C330.428 95.06 330.076 94.588 329.58 94.204C329.228 93.916 328.868 93.716 328.5 93.604C328.148 93.492 327.756 93.436 327.324 93.436C326.652 93.436 326.036 93.596 325.476 93.916C324.932 94.236 324.5 94.756 324.18 95.476C323.86 96.18 323.7 97.124 323.7 98.308C323.7 99.524 323.868 100.484 324.204 101.188C324.54 101.892 324.972 102.396 325.5 102.7C326.028 102.988 326.58 103.132 327.156 103.132C327.62 103.132 328.036 103.084 328.404 102.988C328.772 102.876 329.14 102.676 329.508 102.388C330.004 102.02 330.372 101.548 330.612 100.972C330.852 100.38 330.972 99.644 330.972 98.764V97.924ZM335.909 88.612C335.909 88.212 336.045 87.884 336.317 87.628C336.589 87.356 336.917 87.22 337.301 87.22C337.717 87.22 338.053 87.348 338.309 87.604C338.565 87.86 338.693 88.196 338.693 88.612C338.693 89.012 338.565 89.348 338.309 89.62C338.053 89.876 337.717 90.004 337.301 90.004C336.901 90.004 336.565 89.876 336.293 89.62C336.037 89.348 335.909 89.012 335.909 88.612ZM336.269 104.5V92.092H338.357V104.5H336.269ZM341.66 87.364H343.748V104.5H341.66V87.364ZM358.067 92.092V104.5H356.027V102.724C355.515 103.412 354.923 103.948 354.251 104.332C353.579 104.7 352.787 104.884 351.875 104.884C350.659 104.884 349.659 104.596 348.875 104.02C348.107 103.444 347.531 102.66 347.147 101.668C346.779 100.676 346.595 99.572 346.595 98.356C346.595 96.292 347.083 94.668 348.059 93.484C349.051 92.3 350.403 91.708 352.115 91.708C352.771 91.708 353.443 91.852 354.131 92.14C354.819 92.412 355.451 92.916 356.027 93.652V92.092H358.067ZM356.051 97.924C356.051 96.932 355.939 96.164 355.715 95.62C355.507 95.06 355.155 94.588 354.659 94.204C354.307 93.916 353.947 93.716 353.579 93.604C353.227 93.492 352.835 93.436 352.403 93.436C351.731 93.436 351.115 93.596 350.555 93.916C350.011 94.236 349.579 94.756 349.259 95.476C348.939 96.18 348.779 97.124 348.779 98.308C348.779 99.524 348.947 100.484 349.283 101.188C349.619 101.892 350.051 102.396 350.579 102.7C351.107 102.988 351.659 103.132 352.235 103.132C352.699 103.132 353.115 103.084 353.483 102.988C353.851 102.876 354.219 102.676 354.587 102.388C355.083 102.02 355.451 101.548 355.691 100.972C355.931 100.38 356.051 99.644 356.051 98.764V97.924ZM361.299 87.364H363.387V93.82C363.899 93.148 364.491 92.628 365.163 92.26C365.835 91.892 366.627 91.708 367.539 91.708C368.419 91.708 369.187 91.868 369.843 92.188C370.515 92.508 371.067 92.956 371.499 93.532C371.947 94.108 372.275 94.796 372.483 95.596C372.707 96.38 372.819 97.252 372.819 98.212C372.819 99.236 372.691 100.164 372.435 100.996C372.179 101.812 371.811 102.508 371.331 103.084C370.851 103.66 370.267 104.108 369.579 104.428C368.907 104.732 368.147 104.884 367.299 104.884C366.579 104.884 365.875 104.74 365.187 104.452C364.515 104.148 363.907 103.636 363.363 102.916V104.5H361.299V87.364ZM363.363 98.644C363.363 99.444 363.451 100.132 363.627 100.708C363.819 101.268 364.075 101.732 364.395 102.1C364.715 102.468 365.099 102.74 365.547 102.916C365.995 103.076 366.483 103.156 367.011 103.156C367.523 103.156 367.995 103.068 368.427 102.892C368.875 102.716 369.259 102.436 369.579 102.052C369.899 101.652 370.147 101.14 370.323 100.516C370.515 99.892 370.611 99.132 370.611 98.236C370.611 97.324 370.507 96.564 370.299 95.956C370.107 95.332 369.851 94.836 369.531 94.468C369.211 94.1 368.843 93.836 368.427 93.676C368.027 93.516 367.611 93.436 367.179 93.436C366.635 93.436 366.131 93.532 365.667 93.724C365.203 93.9 364.795 94.172 364.443 94.54C364.107 94.892 363.843 95.348 363.651 95.908C363.459 96.452 363.363 97.084 363.363 97.804V98.644ZM375.668 87.364H377.756V104.5H375.668V87.364ZM391.738 101.02C391.53 102.22 390.994 103.164 390.13 103.852C389.282 104.54 388.058 104.884 386.458 104.884C384.57 104.884 383.122 104.316 382.114 103.18C381.106 102.028 380.602 100.428 380.602 98.38C380.602 97.308 380.746 96.356 381.034 95.524C381.322 94.692 381.722 93.996 382.234 93.436C382.762 92.876 383.386 92.452 384.106 92.164C384.826 91.86 385.61 91.708 386.458 91.708C387.418 91.708 388.242 91.86 388.93 92.164C389.618 92.468 390.178 92.892 390.61 93.436C391.058 93.964 391.386 94.596 391.594 95.332C391.818 96.068 391.93 96.876 391.93 97.756V98.812H382.714C382.714 99.436 382.794 100.02 382.954 100.564C383.13 101.092 383.37 101.556 383.674 101.956C383.994 102.34 384.386 102.644 384.85 102.868C385.314 103.092 385.85 103.204 386.458 103.204C387.498 103.204 388.258 103.012 388.738 102.628C389.218 102.228 389.546 101.692 389.722 101.02H391.738ZM389.842 97.252C389.842 96.66 389.778 96.124 389.65 95.644C389.522 95.164 389.322 94.756 389.05 94.42C388.778 94.068 388.426 93.796 387.994 93.604C387.562 93.412 387.042 93.316 386.434 93.316C385.33 93.316 384.466 93.652 383.842 94.324C383.234 94.996 382.874 95.972 382.762 97.252H389.842ZM400.858 91.036C400.858 90.14 401.026 89.412 401.362 88.852C401.698 88.276 402.138 87.852 402.682 87.58C403.242 87.308 403.866 87.172 404.554 87.172C404.922 87.172 405.274 87.196 405.61 87.244C405.946 87.276 406.298 87.348 406.666 87.46L406.33 89.092C406.074 89.012 405.826 88.964 405.586 88.948C405.362 88.916 405.138 88.9 404.914 88.9C404.354 88.9 403.874 89.052 403.474 89.356C403.074 89.644 402.874 90.18 402.874 90.964V92.092H406.018V93.748H402.874V104.5H400.786V93.748H398.842V92.164H399.922C400.338 92.164 400.594 92.092 400.69 91.948C400.802 91.804 400.858 91.5 400.858 91.036ZM413.156 104.884C412.212 104.884 411.372 104.732 410.636 104.428C409.9 104.124 409.276 103.692 408.764 103.132C408.252 102.572 407.86 101.884 407.588 101.068C407.316 100.252 407.18 99.34 407.18 98.332C407.18 97.324 407.324 96.412 407.612 95.596C407.9 94.78 408.308 94.084 408.836 93.508C409.364 92.932 409.996 92.492 410.732 92.188C411.484 91.868 412.316 91.708 413.228 91.708C414.156 91.708 414.988 91.86 415.724 92.164C416.46 92.468 417.084 92.908 417.596 93.484C418.124 94.044 418.524 94.724 418.796 95.524C419.068 96.324 419.204 97.228 419.204 98.236C419.204 99.26 419.06 100.18 418.772 100.996C418.5 101.812 418.1 102.508 417.572 103.084C417.06 103.66 416.428 104.108 415.676 104.428C414.924 104.732 414.084 104.884 413.156 104.884ZM413.18 103.156C413.852 103.156 414.428 103.036 414.908 102.796C415.388 102.556 415.78 102.22 416.084 101.788C416.404 101.356 416.636 100.844 416.78 100.252C416.924 99.644 416.996 98.98 416.996 98.26C416.996 97.556 416.924 96.908 416.78 96.316C416.636 95.724 416.404 95.22 416.084 94.804C415.78 94.372 415.388 94.036 414.908 93.796C414.428 93.556 413.852 93.436 413.18 93.436C412.508 93.436 411.932 93.556 411.452 93.796C410.988 94.036 410.596 94.372 410.276 94.804C409.972 95.22 409.748 95.724 409.604 96.316C409.46 96.908 409.388 97.564 409.388 98.284C409.388 99.004 409.46 99.66 409.604 100.252C409.748 100.844 409.972 101.356 410.276 101.788C410.58 102.22 410.972 102.556 411.452 102.796C411.932 103.036 412.508 103.156 413.18 103.156ZM422.003 92.092H424.067V94.012C424.531 93.324 425.075 92.796 425.699 92.428C426.323 92.06 426.987 91.876 427.691 91.876C428.123 91.876 428.491 91.908 428.795 91.972L428.531 93.916C428.371 93.884 428.211 93.86 428.051 93.844C427.891 93.812 427.715 93.796 427.523 93.796C427.139 93.796 426.747 93.868 426.347 94.012C425.947 94.14 425.571 94.364 425.219 94.684C424.867 94.988 424.587 95.34 424.379 95.74C424.187 96.14 424.091 96.604 424.091 97.132V104.5H422.003V92.092ZM436.063 92.092H438.151V99.916C438.151 101.068 438.335 101.884 438.703 102.364C439.087 102.844 439.703 103.084 440.551 103.084C441.479 103.084 442.319 102.748 443.071 102.076C443.471 101.724 443.775 101.356 443.983 100.972C444.191 100.572 444.295 100.06 444.295 99.436V92.092H446.383V104.5H444.319V102.58C443.711 103.38 443.055 103.964 442.351 104.332C441.647 104.7 440.887 104.884 440.071 104.884C438.663 104.884 437.639 104.508 436.999 103.756C436.375 102.988 436.063 101.844 436.063 100.324V92.092ZM449.588 92.092H451.652V93.868C452.164 93.164 452.756 92.628 453.428 92.26C454.116 91.892 454.916 91.708 455.828 91.708C456.708 91.708 457.476 91.868 458.132 92.188C458.804 92.508 459.356 92.956 459.788 93.532C460.236 94.108 460.564 94.796 460.772 95.596C460.996 96.38 461.108 97.252 461.108 98.212C461.108 99.236 460.98 100.164 460.724 100.996C460.468 101.812 460.1 102.508 459.62 103.084C459.14 103.66 458.556 104.108 457.868 104.428C457.196 104.732 456.436 104.884 455.588 104.884C454.884 104.884 454.188 104.748 453.5 104.476C452.828 104.188 452.22 103.684 451.676 102.964V109.156H449.588V92.092ZM451.652 98.644C451.652 99.444 451.74 100.132 451.916 100.708C452.108 101.268 452.364 101.732 452.684 102.1C453.004 102.468 453.388 102.74 453.836 102.916C454.284 103.076 454.772 103.156 455.3 103.156C455.812 103.156 456.284 103.068 456.716 102.892C457.164 102.716 457.548 102.436 457.868 102.052C458.188 101.652 458.436 101.14 458.612 100.516C458.804 99.892 458.9 99.132 458.9 98.236C458.9 97.324 458.796 96.564 458.588 95.956C458.396 95.332 458.14 94.836 457.82 94.468C457.5 94.1 457.132 93.836 456.716 93.676C456.316 93.516 455.9 93.436 455.468 93.436C454.924 93.436 454.42 93.532 453.956 93.724C453.492 93.9 453.084 94.172 452.732 94.54C452.396 94.892 452.132 95.348 451.94 95.908C451.748 96.452 451.652 97.084 451.652 97.804V98.644ZM472.061 101.02C472.061 101.628 472.197 102.116 472.469 102.484C472.741 102.852 473.157 103.036 473.717 103.036C474.069 103.036 474.373 103.012 474.629 102.964C474.901 102.9 475.149 102.828 475.373 102.748L475.733 104.38C475.413 104.492 475.061 104.58 474.677 104.644C474.309 104.724 473.869 104.764 473.357 104.764C472.429 104.764 471.717 104.58 471.221 104.212C470.741 103.844 470.413 103.34 470.237 102.7C470.061 102.044 469.973 101.3 469.973 100.468V93.748H468.053V92.14H469.133C469.549 92.14 469.805 92.076 469.901 91.948C470.013 91.82 470.069 91.556 470.069 91.156V88.708H472.061V92.092H475.349V93.748H472.061V101.02ZM482.789 104.884C481.845 104.884 481.005 104.732 480.269 104.428C479.533 104.124 478.909 103.692 478.397 103.132C477.885 102.572 477.493 101.884 477.221 101.068C476.949 100.252 476.813 99.34 476.813 98.332C476.813 97.324 476.957 96.412 477.245 95.596C477.533 94.78 477.941 94.084 478.469 93.508C478.997 92.932 479.629 92.492 480.365 92.188C481.117 91.868 481.949 91.708 482.861 91.708C483.789 91.708 484.621 91.86 485.357 92.164C486.093 92.468 486.717 92.908 487.229 93.484C487.757 94.044 488.157 94.724 488.429 95.524C488.701 96.324 488.837 97.228 488.837 98.236C488.837 99.26 488.693 100.18 488.405 100.996C488.133 101.812 487.733 102.508 487.205 103.084C486.693 103.66 486.061 104.108 485.309 104.428C484.557 104.732 483.717 104.884 482.789 104.884ZM482.813 103.156C483.485 103.156 484.061 103.036 484.541 102.796C485.021 102.556 485.413 102.22 485.717 101.788C486.037 101.356 486.269 100.844 486.413 100.252C486.557 99.644 486.629 98.98 486.629 98.26C486.629 97.556 486.557 96.908 486.413 96.316C486.269 95.724 486.037 95.22 485.717 94.804C485.413 94.372 485.021 94.036 484.541 93.796C484.061 93.556 483.485 93.436 482.813 93.436C482.141 93.436 481.565 93.556 481.085 93.796C480.621 94.036 480.229 94.372 479.909 94.804C479.605 95.22 479.381 95.724 479.237 96.316C479.093 96.908 479.021 97.564 479.021 98.284C479.021 99.004 479.093 99.66 479.237 100.252C479.381 100.844 479.605 101.356 479.909 101.788C480.213 102.22 480.605 102.556 481.085 102.796C481.565 103.036 482.141 103.156 482.813 103.156ZM508.043 92.092V104.5H506.003V102.724C505.491 103.412 504.899 103.948 504.227 104.332C503.555 104.7 502.763 104.884 501.851 104.884C500.635 104.884 499.635 104.596 498.851 104.02C498.083 103.444 497.507 102.66 497.123 101.668C496.755 100.676 496.571 99.572 496.571 98.356C496.571 96.292 497.059 94.668 498.035 93.484C499.027 92.3 500.379 91.708 502.091 91.708C502.747 91.708 503.419 91.852 504.107 92.14C504.795 92.412 505.427 92.916 506.003 93.652V92.092H508.043ZM506.027 97.924C506.027 96.932 505.915 96.164 505.691 95.62C505.483 95.06 505.131 94.588 504.635 94.204C504.283 93.916 503.923 93.716 503.555 93.604C503.203 93.492 502.811 93.436 502.379 93.436C501.707 93.436 501.091 93.596 500.531 93.916C499.987 94.236 499.555 94.756 499.235 95.476C498.915 96.18 498.755 97.124 498.755 98.308C498.755 99.524 498.923 100.484 499.259 101.188C499.595 101.892 500.027 102.396 500.555 102.7C501.083 102.988 501.635 103.132 502.211 103.132C502.675 103.132 503.091 103.084 503.459 102.988C503.827 102.876 504.195 102.676 504.563 102.388C505.059 102.02 505.427 101.548 505.667 100.972C505.907 100.38 506.027 99.644 506.027 98.764V97.924ZM527.396 92.092L520.244 109.156H518.084L520.316 104.188L515.18 92.092H517.604L521.348 101.74L525.092 92.092H527.396ZM539.441 101.02C539.233 102.22 538.697 103.164 537.833 103.852C536.985 104.54 535.761 104.884 534.161 104.884C532.273 104.884 530.825 104.316 529.817 103.18C528.809 102.028 528.305 100.428 528.305 98.38C528.305 97.308 528.449 96.356 528.737 95.524C529.025 94.692 529.425 93.996 529.937 93.436C530.465 92.876 531.089 92.452 531.809 92.164C532.529 91.86 533.313 91.708 534.161 91.708C535.121 91.708 535.945 91.86 536.633 92.164C537.321 92.468 537.881 92.892 538.313 93.436C538.761 93.964 539.089 94.596 539.297 95.332C539.521 96.068 539.633 96.876 539.633 97.756V98.812H530.417C530.417 99.436 530.497 100.02 530.657 100.564C530.833 101.092 531.073 101.556 531.377 101.956C531.697 102.34 532.089 102.644 532.553 102.868C533.017 103.092 533.553 103.204 534.161 103.204C535.201 103.204 535.961 103.012 536.441 102.628C536.921 102.228 537.249 101.692 537.425 101.02H539.441ZM537.545 97.252C537.545 96.66 537.481 96.124 537.353 95.644C537.225 95.164 537.025 94.756 536.753 94.42C536.481 94.068 536.129 93.796 535.697 93.604C535.265 93.412 534.745 93.316 534.137 93.316C533.033 93.316 532.169 93.652 531.545 94.324C530.937 94.996 530.577 95.972 530.465 97.252H537.545ZM553.465 92.092V104.5H551.425V102.724C550.913 103.412 550.321 103.948 549.649 104.332C548.977 104.7 548.185 104.884 547.273 104.884C546.057 104.884 545.057 104.596 544.273 104.02C543.505 103.444 542.929 102.66 542.545 101.668C542.177 100.676 541.993 99.572 541.993 98.356C541.993 96.292 542.481 94.668 543.457 93.484C544.449 92.3 545.801 91.708 547.513 91.708C548.169 91.708 548.841 91.852 549.529 92.14C550.217 92.412 550.849 92.916 551.425 93.652V92.092H553.465ZM551.449 97.924C551.449 96.932 551.337 96.164 551.113 95.62C550.905 95.06 550.553 94.588 550.057 94.204C549.705 93.916 549.345 93.716 548.977 93.604C548.625 93.492 548.233 93.436 547.801 93.436C547.129 93.436 546.513 93.596 545.953 93.916C545.409 94.236 544.977 94.756 544.657 95.476C544.337 96.18 544.177 97.124 544.177 98.308C544.177 99.524 544.345 100.484 544.681 101.188C545.017 101.892 545.449 102.396 545.977 102.7C546.505 102.988 547.057 103.132 547.633 103.132C548.097 103.132 548.513 103.084 548.881 102.988C549.249 102.876 549.617 102.676 549.985 102.388C550.481 102.02 550.849 101.548 551.089 100.972C551.329 100.38 551.449 99.644 551.449 98.764V97.924ZM556.698 92.092H558.762V94.012C559.226 93.324 559.77 92.796 560.394 92.428C561.018 92.06 561.682 91.876 562.386 91.876C562.818 91.876 563.186 91.908 563.49 91.972L563.226 93.916C563.066 93.884 562.906 93.86 562.746 93.844C562.586 93.812 562.41 93.796 562.218 93.796C561.834 93.796 561.442 93.868 561.042 94.012C560.642 94.14 560.266 94.364 559.914 94.684C559.562 94.988 559.282 95.34 559.074 95.74C558.882 96.14 558.786 96.604 558.786 97.132V104.5H556.698V92.092ZM563.274 103.444C563.274 103.028 563.41 102.684 563.682 102.412C563.954 102.14 564.306 102.004 564.738 102.004C565.17 102.004 565.522 102.14 565.794 102.412C566.066 102.684 566.202 103.028 566.202 103.444C566.202 103.86 566.066 104.204 565.794 104.476C565.522 104.748 565.17 104.884 564.738 104.884C564.306 104.884 563.954 104.748 563.682 104.476C563.41 104.204 563.274 103.86 563.274 103.444Z" fill="black"/>
</svg>
