<svg width="224" height="29" viewBox="0 0 224 29" fill="none" xmlns="http://www.w3.org/2000/svg">
<path d="M24.8723 7.67993C23.9415 8.60928 23.6553 9.1083 22.9872 10.5134L16.8085 24.0001L12.4362 14.548L8.11595 24.0001L1.88617 10.5134C1.24149 9.1083 0.957446 8.65474 0 7.67993H7.90106C7.60952 7.90267 7.37598 8.18623 7.2186 8.50859C7.06122 8.83095 6.98423 9.18342 6.99361 9.53863C6.99361 10.0831 7.08936 10.468 7.4 11.171L9.76276 16.5249L11.5053 12.5358L10.5319 10.3771C9.95957 9.13052 9.55319 8.35674 8.98085 7.67993H16.8819C16.1181 8.15572 15.7362 8.76787 15.7362 9.53863C15.7362 10.0831 15.8308 10.468 16.1415 11.171L18.5521 16.5249L20.9394 11.1761C21.25 10.469 21.3649 10.0882 21.3649 9.5659C21.3649 8.88606 20.8638 8.07086 20.2904 7.68498L24.8723 7.67993Z" fill="#161616"/>
<path d="M33.0851 19.6928C32.3212 22.8434 30.484 23.8859 27.8106 23.8859C24.7553 23.8859 21.8904 21.7787 21.8904 17.8118C21.8904 14.0035 24.4202 11.3064 27.7414 11.3064C29.9138 11.3064 32.9691 12.3721 32.9691 16.8623H25.7553C26.2563 19.2644 27.9031 20.511 30.1946 20.511C31.3648 20.509 32.1765 20.3049 33.0851 19.6928ZM25.6117 15.2955V15.5864H28.7627C28.7627 13.3196 28.2372 12.6176 27.2351 12.6176C26.2085 12.6216 25.6117 13.5954 25.6117 15.2955Z" fill="#161616"/>
<path d="M47.5532 11.7821C45.5713 9.9921 43.6171 9.06275 42.1107 9.06275V19.0633C42.1107 21.0837 42.6596 22.3049 44.116 23.5515H35.0884C36.5447 22.3049 37.0937 21.0806 37.0937 19.0633V9.06275C35.5894 9.06275 33.5373 9.9921 31.6511 11.7821L32.6064 7C33.2501 7.47579 34.4437 7.67984 35.7809 7.67984H43.4192C44.7564 7.67984 45.949 7.47781 46.5937 7L47.5532 11.7821Z" fill="#161616"/>
<path d="M53.0383 23.5466H45.4479C46.3787 22.5041 46.784 21.8243 46.784 20.1696V16.4957C46.784 15.2037 46.5936 14.5915 45.6862 13.7975L45.1606 13.345L50.8904 11.3044V14.14C51.4394 12.5075 52.2979 11.3065 53.7064 11.3065C54.8521 11.3065 55.5926 12.0772 55.5926 13.2106C55.5926 14.4117 54.8043 15.2501 53.7064 15.2501C53.4681 14.7289 52.8947 14.4804 52.3702 14.4804C51.9447 14.4804 51.534 14.5935 51.3191 14.7976V20.0312C51.3191 21.7788 51.6298 22.2536 53.0383 23.5466Z" fill="#161616"/>
<path d="M68.7234 21.4615C68.4372 22.8889 67.1957 23.8859 65.501 23.8859C64.0691 23.8859 62.9712 23.0707 62.6372 22.1414C61.9148 23.3647 60.5808 23.8859 59.1489 23.8859C57.167 23.8859 55.8308 22.6394 55.8308 20.9393C55.8308 18.9452 57.3351 17.5623 60.7957 16.7693L62.3914 16.4067V14.3662C62.3914 13.0974 61.9383 12.5762 61.1266 12.5762C60.3627 12.5762 59.8617 13.052 59.8617 13.7096C59.8617 14.2763 60.1478 14.6389 60.6489 15.0915C60.6489 15.8168 59.4553 16.5653 58.2148 16.5653C57.9405 16.5709 57.6678 16.5238 57.4132 16.4267C57.1586 16.3296 56.9272 16.1846 56.7332 16.0003C56.5392 15.8161 56.3865 15.5965 56.2842 15.3547C56.182 15.1129 56.1323 14.854 56.1383 14.5935C56.1383 12.6671 58.3819 11.3064 61.6702 11.3064C65.1074 11.3064 66.9223 12.6893 66.9223 15.7713V20.6453C66.9223 21.2575 67.3042 21.6646 67.901 21.6646C68.267 21.6646 68.5297 21.5969 68.7234 21.4615ZM62.3978 21.1211V17.4714L62.0883 17.5623C61.0617 17.8573 60.3691 18.4917 60.3691 19.7614C60.3691 20.8494 60.8223 21.506 61.5627 21.506C61.9414 21.506 62.2521 21.3929 62.3946 21.1211H62.3978Z" fill="#161616"/>
<path d="M75.1894 23.5466H68.7681C69.4362 22.9344 69.866 22.0313 69.866 20.1696V16.4957C69.866 15.2481 69.699 14.6137 68.9086 13.9117L68.3596 13.4349L74.2788 11.3044V13.0722C74.9713 11.9843 76.4277 11.3044 77.883 11.3044C80.1745 11.3044 81.4405 12.4833 81.4405 14.5915V20.9404C81.4405 22.2324 81.7979 23.0263 82.3713 23.5476H76.1203C76.7405 22.9809 76.9075 22.2101 76.9075 21.598V15.1148C76.9075 14.1622 76.5734 13.6864 75.6426 13.6864C75.4144 13.6806 75.1872 13.7177 74.9742 13.7955C74.7611 13.8733 74.5663 13.9904 74.4011 14.14V21.597C74.4011 22.2091 74.5681 22.9607 75.1894 23.5466Z" fill="#161616"/>
<path d="M83.5435 22.8889V19.0129C85.2616 21.1433 87.0542 22.3222 88.7233 22.3222C89.534 22.3222 89.9159 21.9181 89.9159 21.3474C89.9159 20.8039 89.6063 20.4867 89.0574 20.2827L86.2914 19.3079C84.1637 18.5593 83.2063 17.3128 83.2063 15.4541C83.2063 13.052 85.2829 11.3064 88.2435 11.3064C89.8393 11.3064 91.6095 11.7377 92.4925 12.3489V15.6582C91.3946 13.8227 89.6042 12.8024 87.8616 12.8024C86.9786 12.8024 86.5244 13.0742 86.5244 13.5954C86.5244 14.1167 86.8584 14.3207 87.5988 14.6157L90.8712 15.8895C92.518 16.5239 93.2584 17.8613 93.2584 19.4705C93.2584 22.1222 91.2297 23.89 88.1733 23.89C86.5713 23.884 84.9903 23.5422 83.5435 22.8889Z" fill="#161616"/>
<path d="M93.735 12.7801L95.118 10.7598C96.886 8.22431 98.2977 7 100.682 7C102.543 7 103.737 7.77075 103.737 8.92638C103.737 9.92442 102.878 10.6497 101.064 10.6497C101.064 9.24357 100.228 8.72232 99.3924 8.72232C98.5573 8.72232 97.9126 9.28902 97.9126 10.2184C97.9126 10.8528 98.2701 11.4881 99.3679 11.6467H102.021L101.064 12.7801H99.4403V19.5119C99.4403 20.7806 99.6531 21.914 101.036 23.0706L101.609 23.5464H93.3765C94.3339 22.6373 94.9041 21.5261 94.9041 19.8967V12.7801H93.735Z" fill="#161616"/>
<path d="M112.447 19.6928C111.683 22.8434 109.845 23.8859 107.171 23.8859C104.116 23.8859 101.252 21.7787 101.252 17.8118C101.252 14.0035 103.782 11.3064 107.103 11.3064C109.276 11.3064 112.331 12.3721 112.331 16.8623H105.121C105.622 19.2644 107.269 20.511 109.561 20.511C110.731 20.509 111.543 20.3049 112.447 19.6928ZM104.978 15.2955V15.5864H108.129C108.129 13.3196 107.603 12.6176 106.601 12.6176C105.575 12.6216 104.978 13.5954 104.978 15.2955Z" fill="#161616"/>
<path d="M120.446 23.5465H112.854C113.785 22.504 114.192 21.8242 114.192 20.1695V16.4956C114.192 15.2036 114 14.5914 113.094 13.7975L112.568 13.3449L118.298 11.3064V14.1399C118.847 12.5075 119.706 11.3064 121.115 11.3064C122.261 11.3064 123 12.0771 123 13.2105C123 14.4116 122.213 15.2501 121.115 15.2501C120.876 14.7288 120.303 14.4803 119.778 14.4803C119.352 14.4803 118.943 14.5935 118.728 14.7975V20.0312C118.723 21.7787 119.043 22.2535 120.446 23.5465Z" fill="#161616"/>
<path d="M127.704 6.864H129.912V17.208C129.912 18.984 130.24 20.312 130.896 21.192C131.568 22.072 132.672 22.512 134.208 22.512C135.76 22.512 136.856 22.072 137.496 21.192C138.136 20.296 138.456 18.968 138.456 17.208V6.864H140.664V17.208C140.664 18.488 140.512 19.584 140.208 20.496C139.92 21.392 139.496 22.136 138.936 22.728C138.392 23.32 137.712 23.752 136.896 24.024C136.096 24.296 135.192 24.432 134.184 24.432C132.12 24.432 130.52 23.856 129.384 22.704C128.264 21.552 127.704 19.688 127.704 17.112V6.864ZM144.735 6.864H146.823V24H144.735V6.864ZM153.606 20.52C153.606 21.128 153.742 21.616 154.014 21.984C154.286 22.352 154.702 22.536 155.262 22.536C155.614 22.536 155.918 22.512 156.174 22.464C156.446 22.4 156.694 22.328 156.918 22.248L157.278 23.88C156.958 23.992 156.606 24.08 156.222 24.144C155.854 24.224 155.414 24.264 154.902 24.264C153.974 24.264 153.262 24.08 152.766 23.712C152.286 23.344 151.958 22.84 151.782 22.2C151.606 21.544 151.518 20.8 151.518 19.968V13.248H149.598V11.64H150.678C151.094 11.64 151.35 11.576 151.446 11.448C151.558 11.32 151.614 11.056 151.614 10.656V8.208H153.606V11.592H156.894V13.248H153.606V20.52ZM159.526 8.112C159.526 7.712 159.662 7.384 159.934 7.128C160.206 6.856 160.534 6.72 160.918 6.72C161.334 6.72 161.67 6.848 161.926 7.104C162.182 7.36 162.31 7.696 162.31 8.112C162.31 8.512 162.182 8.848 161.926 9.12C161.67 9.376 161.334 9.504 160.918 9.504C160.518 9.504 160.182 9.376 159.91 9.12C159.654 8.848 159.526 8.512 159.526 8.112ZM159.886 24V11.592H161.974V24H159.886ZM165.949 11.592H168.013V13.488C168.573 12.72 169.189 12.152 169.861 11.784C170.533 11.4 171.221 11.208 171.925 11.208C172.853 11.208 173.597 11.408 174.157 11.808C174.733 12.208 175.157 12.784 175.429 13.536C175.989 12.768 176.629 12.192 177.349 11.808C178.069 11.408 178.837 11.208 179.653 11.208C180.869 11.208 181.805 11.544 182.461 12.216C183.133 12.872 183.469 13.936 183.469 15.408V24H181.381V15.888C181.381 15.328 181.333 14.864 181.237 14.496C181.141 14.112 180.997 13.816 180.805 13.608C180.629 13.384 180.405 13.232 180.133 13.152C179.861 13.056 179.549 13.008 179.197 13.008C178.829 13.008 178.445 13.072 178.045 13.2C177.645 13.328 177.253 13.552 176.869 13.872C176.549 14.144 176.285 14.472 176.077 14.856C175.869 15.24 175.765 15.68 175.765 16.176V24H173.677V15.912C173.677 14.824 173.485 14.072 173.101 13.656C172.733 13.224 172.197 13.008 171.493 13.008C170.677 13.008 169.909 13.344 169.189 14.016C168.917 14.272 168.653 14.6 168.397 15C168.157 15.4 168.037 15.936 168.037 16.608V24H165.949V11.592ZM198.405 11.592V24H196.365V22.224C195.853 22.912 195.261 23.448 194.589 23.832C193.917 24.2 193.125 24.384 192.213 24.384C190.997 24.384 189.997 24.096 189.213 23.52C188.445 22.944 187.869 22.16 187.485 21.168C187.117 20.176 186.933 19.072 186.933 17.856C186.933 15.792 187.421 14.168 188.397 12.984C189.389 11.8 190.741 11.208 192.453 11.208C193.109 11.208 193.781 11.352 194.469 11.64C195.157 11.912 195.789 12.416 196.365 13.152V11.592H198.405ZM196.389 17.424C196.389 16.432 196.277 15.664 196.053 15.12C195.845 14.56 195.493 14.088 194.997 13.704C194.645 13.416 194.285 13.216 193.917 13.104C193.565 12.992 193.173 12.936 192.741 12.936C192.069 12.936 191.453 13.096 190.893 13.416C190.349 13.736 189.917 14.256 189.597 14.976C189.277 15.68 189.117 16.624 189.117 17.808C189.117 19.024 189.285 19.984 189.621 20.688C189.957 21.392 190.389 21.896 190.917 22.2C191.445 22.488 191.997 22.632 192.573 22.632C193.037 22.632 193.453 22.584 193.821 22.488C194.189 22.376 194.557 22.176 194.925 21.888C195.421 21.52 195.789 21.048 196.029 20.472C196.269 19.88 196.389 19.144 196.389 18.264V17.424ZM205.166 20.52C205.166 21.128 205.302 21.616 205.574 21.984C205.846 22.352 206.262 22.536 206.822 22.536C207.174 22.536 207.478 22.512 207.734 22.464C208.006 22.4 208.254 22.328 208.478 22.248L208.838 23.88C208.518 23.992 208.166 24.08 207.782 24.144C207.414 24.224 206.974 24.264 206.462 24.264C205.534 24.264 204.822 24.08 204.326 23.712C203.846 23.344 203.518 22.84 203.342 22.2C203.166 21.544 203.078 20.8 203.078 19.968V13.248H201.158V11.64H202.238C202.654 11.64 202.91 11.576 203.006 11.448C203.118 11.32 203.174 11.056 203.174 10.656V8.208H205.166V11.592H208.454V13.248H205.166V20.52ZM221.774 20.52C221.566 21.72 221.03 22.664 220.166 23.352C219.318 24.04 218.094 24.384 216.494 24.384C214.606 24.384 213.158 23.816 212.15 22.68C211.142 21.528 210.638 19.928 210.638 17.88C210.638 16.808 210.782 15.856 211.07 15.024C211.358 14.192 211.758 13.496 212.27 12.936C212.798 12.376 213.422 11.952 214.142 11.664C214.862 11.36 215.646 11.208 216.494 11.208C217.454 11.208 218.278 11.36 218.966 11.664C219.654 11.968 220.214 12.392 220.646 12.936C221.094 13.464 221.422 14.096 221.63 14.832C221.854 15.568 221.966 16.376 221.966 17.256V18.312H212.75C212.75 18.936 212.83 19.52 212.99 20.064C213.166 20.592 213.406 21.056 213.71 21.456C214.03 21.84 214.422 22.144 214.886 22.368C215.35 22.592 215.886 22.704 216.494 22.704C217.534 22.704 218.294 22.512 218.774 22.128C219.254 21.728 219.582 21.192 219.758 20.52H221.774ZM219.878 16.752C219.878 16.16 219.814 15.624 219.686 15.144C219.558 14.664 219.358 14.256 219.086 13.92C218.814 13.568 218.462 13.296 218.03 13.104C217.598 12.912 217.078 12.816 216.47 12.816C215.366 12.816 214.502 13.152 213.878 13.824C213.27 14.496 212.91 15.472 212.798 16.752H219.878Z" fill="#3767EA"/>
</svg>
